<svg xmlns="http://www.w3.org/2000/svg" width="1780.5" height="1778.125" viewBox="0 0 1780.5 1778.125">
  <defs>
    <style>
      .cls-1 {
        fill-rule: evenodd;
      }
    </style>
  </defs>
  <path id="Color_Fill_1" data-name="Color Fill 1" class="cls-1" d="M865,6c134.529-2.015,247.55,18.006,342,57,42.39,17.5,82.34,32.635,119,55,11.72,7.15,23.52,11.773,35,19,28.26,17.788,55.32,37.415,82,57,18.23,13.38,33.9,30.323,52,44q7.005,7.5,14,15c25.32,19.146,50.86,49.45,70,75,16.01,21.373,34.44,41.859,50,64,36.19,51.5,63.75,108.413,90,170,17.02,39.932,29.33,84.081,42,129q6.495,33.5,13,67,4.005,35,8,70v15c3.44,16.158,4.73,65.044,1,82-1.5,6.825.23,16.413-1,22q-1.005,19-2,38c-7.7,33.86-6.89,68.87-16,101-15.62,55.12-28.76,108.06-50,157-105.71,243.57-293.56,414.89-556,502-32.61,10.82-67.47,16.17-102,25-17.47,4.47-35.9,4.09-53,8l-78,6H888c-28.085.01-58.4,0.54-83-5q-13-1.005-26-2-37.5-6.495-75-13c-23.823-6.75-48.592-11.18-72-19-37.8-12.63-74.638-27.86-109-43-136.351-60.07-255.733-158.53-338-273-35.194-48.97-71.3-100.62-97-159-15.792-35.87-30.179-73.37-43-112-3.225-9.72-3.789-18.19-7-28-8.107-24.77-12.334-53.24-19-80-3.872-15.54-3.552-31.94-7-47-3.115-13.607-1.128-28.109-4-41V947c-3.444-16.158-4.728-65.044-1-82V843c6.249-27.956,2.363-57.852,9-85,4.274-17.485,4.973-36.264,10-54,10.661-37.612,17.7-76.237,32-111,13.35-32.453,26.474-65.236,42-95,4.169-7.992,6.327-16.311,11-24,12.865-21.171,24.752-43.019,38-64,17.177-27.2,37.88-52.4,57-78,9.324-12.485,22.674-22.668,32-35,12.039-15.918,27.067-31.961,43-44l14-15c18.088-13.689,33.783-30.6,52-44,67.287-49.489,139-92.658,222-127,42.343-17.521,88.3-27.908,135-41,17.755-4.977,36.5-5.782,54-10l70-8C837.287,5.946,858.4,10.152,865,6ZM404,1237H608q225.978-226.47,452-453l118-118c8.89-13.443,8.06-35.446-1-48L1047,489c-10.24-10.236-29.67-38.157-53-33-26.809,5.925-40.475,28.474-57,45L829,609,404,1033v204Zm986,0V1073H938q-81.492,81.99-163,164h615Z" transform="translate(-4.75 -5.875)"/>
</svg>
