<svg xmlns="http://www.w3.org/2000/svg" width="1779.56" height="1778.72" viewBox="0 0 1779.56 1778.72">
  <defs>
    <style>
      .cls-1 {
        fill-rule: evenodd;
      }
    </style>
  </defs>
  <path id="Color_Fill_1" data-name="Color Fill 1" class="cls-1" d="M860,6h63c10.253,1.619,29.531,2.232,42,2,0.921-.017,8,1.745,9,2a85.127,85.127,0,0,0,13,0c8.045,2.5,20.27,2.4,30,5a56.649,56.649,0,0,0,10,0c16.37,5.315,34.86,4.764,50,9,52.36,14.655,93.58,22.51,138,42,10.42,4.571,21.01,5.9,31,11,35.06,17.89,70.23,34.322,104,53,28.39,15.7,57.69,38.153,84,57,4.56,3.263,8.45,8.723,13,12,16.7,12.034,30.69,25.776,47,38q6.495,7,13,14c19.7,14.858,38.19,35.245,53,55,6.89,9.194,17.08,16.739,24,26,20.56,27.517,42.42,54.717,61,84,31.87,50.224,57.71,105.072,82,163,12.1,28.86,19.36,60.519,29,91,6.7,21.208,7.32,41.607,13,64,4.03,15.881,4.85,35.408,9,52q0.495,9,1,18c5.67,25.276,4.99,55.754,5,85,0,13.258,1.81,30.544-1,42v18c-3.4,14.889-.4,31.528-4,47q-3.495,24.5-7,49c-8.19,32.48-12.93,66.28-23,96-5.27,15.57-6.94,30.19-13,45-9.53,23.3-19.15,47.82-29,70-6.55,14.76-10.85,29.45-19,43-10.52,17.5-19.06,36.54-30,54-17.37,27.73-36.11,54.61-55,81-15.57,21.75-35.26,41.26-53,61-93.79,104.37-202.14,174.35-342,233-43.83,18.38-95.08,26.21-141,40q-9,1.005-18,2c-15.99,3.95-36.23,5.62-53,9-20.9,4.22-46.347,1.19-67,5-9.987,1.84-37.259-.37-54-1-16.946-.64-37.089-0.21-58-3-7.826-1.05-32.5-3.98-38-3-5.416.96-16.353-4.04-21-3-8.185-2.68-48.659-10.83-53-10-2.694.52-7.412-2.61-10-2-15.8-5.97-30.55-6.92-46-12-32.944-10.83-61.4-20.08-93-34-25.184-11.09-54.348-22.55-80-36-127.53-66.86-230.911-164.29-311-279-26.776-38.35-54.091-80.3-74-125-12.825-28.79-23.659-58.45-36-88-6.527-15.63-8.6-31.4-14-48-9.8-30.11-14.336-64.27-23-97q-3.5-24.99-7-50c-5.41-22.007-.465-48.036-4-72-1.98-13.42-3.254-37.714,0-51,3.245-13.248-.849-28.395,2-40l1-24,9-65c4.8-19.024,6.517-38.813,12-58,12.4-43.4,24.01-86.6,41-126,84.993-197.086,209.361-328.616,384-436,38.5-23.672,82.733-40.864,126-59,39.22-16.44,85.745-24.877,126-37,20.977-6.317,45.413-6.092,64-11l55-6C836.476,5.951,853.049,10.44,860,6Zm286,512q-91.485,91.491-183,183l-48,48c-6,6-12.6,16.97-21,20L708,583l-46-46c-5.429-5.429-11.526-16.22-20-18l-90,91c-6.433,6.433-31.364,27.232-33,35L701,827l48,48c6,6,16.97,12.6,20,21L587,1078q-24,24-48,48c-6,5.99-16.97,12.6-20,21l92,91c7.154,7.15,25.622,29.97,34,33l182-182q24-24,48-48c6-5.99,12.6-16.97,21-20q92.991,92.985,186,186l46,46c5.43,5.43,11.53,16.22,20,18q61.995-62.49,124-125L1089,963q-24-24-48-48c-5.99-6-16.97-12.6-20-21q125.49-125.487,251-251Q1209,580.506,1146,518Z" transform="translate(-5 -6)"/>
</svg>
