<?xml version="1.0" encoding="utf-8"?>
<!-- Generator: Adobe Illustrator 23.0.3, SVG Export Plug-In . SVG Version: 6.00 Build 0)  -->
<svg version="1.1" id="Layer_2" xmlns="http://www.w3.org/2000/svg" xmlns:xlink="http://www.w3.org/1999/xlink" x="0px" y="0px"
	 viewBox="0 0 1780.5 1778.1" style="enable-background:new 0 0 1780.5 1778.1;" xml:space="preserve">
<path d="M3.2,941v15c2.7,23.3,5.3,46.7,8,70c4.3,22.3,8.7,44.7,13,67c12.7,44.9,25,89.1,42,129c26.2,61.6,53.8,118.5,90,170
	c15.6,22.1,34,42.6,50,64c19.1,25.6,44.7,55.9,70,75c4.7,5,9.3,10,14,15c18.1,13.7,33.8,30.6,52,44c26.7,19.6,53.7,39.2,82,57
	c11.5,7.2,23.3,11.9,35,19c36.7,22.4,76.6,37.5,119,55c94.4,39,207.5,59,342,57c6.6-4.2,27.7,0.1,37-2l70-8c17.5-4.2,36.2-5,54-10
	c46.7-13.1,92.7-23.5,135-41c83-34.3,154.7-77.5,222-127c18.2-13.4,33.9-30.3,52-44l14-15c15.9-12,31-28.1,43-44
	c9.3-12.3,22.7-22.5,32-35c19.1-25.6,39.8-50.8,57-78c13.2-21,25.1-42.8,38-64c4.7-7.7,6.8-16,11-24c15.5-29.8,28.7-62.5,42-95
	c14.3-34.8,21.3-73.4,32-111c5-17.7,5.7-36.5,10-54c6.6-27.1,2.8-57,9-85v-22c3.7-17,2.4-65.8-1-82v-15c-2.9-12.9-0.9-27.4-4-41
	c-3.4-15.1-3.1-31.5-7-47c-6.7-26.8-10.9-55.2-19-80c-3.2-9.8-3.8-18.3-7-28c-12.8-38.6-27.2-76.1-43-112
	c-25.7-58.4-61.8-110-97-159c-82.3-114.5-201.6-212.9-338-273c-34.4-15.1-71.2-30.4-109-43c-23.4-7.8-48.2-12.2-72-19
	c-25-4.3-50-8.7-75-13c-8.7-0.7-17.3-1.3-26-2c-24.6-5.5-54.9-5-83-5h-37l-78,6c-17.1,3.9-35.5,3.5-53,8c-34.5,8.8-69.4,14.2-102,25
	C364.8,126.1,177,297.4,71.2,541c-21.2,48.9-34.4,101.9-50,157c-9.1,32.1-8.3,67.1-16,101c-0.7,12.7-1.3,25.3-2,38
	c-1.2,5.6,0.5,15.2-1,22C-1.5,876-0.2,924.8,3.2,941z M891.9,503.8l410.1,587.6H478.4L891.9,503.8z"/>
</svg>
